<svg width="58" height="40" viewBox="0 0 58 40" fill="none" xmlns="http://www.w3.org/2000/svg">
<path d="M57.5227 9.34031C57.4526 5.85426 56.5461 3.69361 55.6408 2.30069C54.7343 0.906523 54.2467 0.975293 54.2467 0.975293C54.2467 0.975293 52.7125 0.627689 51.6671 0.417626C50.6218 0.208813 48.67 0 48.67 0C48.67 0 47.9723 0.138792 47.6247 0.487647C47.2771 0.836502 47.067 1.11534 47.067 1.11534C47.067 1.11534 46.3693 1.04531 45.8129 1.46419C45.2565 1.88307 44.4887 2.57953 44.4887 2.57953C44.4887 2.57953 43.2121 2.62329 42.188 2.5095C40.9339 2.37071 37.5179 0.418876 37.5179 0.418876C37.5179 0.418876 36.4726 0.488897 35.2172 0.836502C33.9618 1.18411 32.7077 1.53421 32.7077 1.53421C32.7077 1.53421 31.8012 2.09188 31.2435 2.5095C30.6858 2.92713 30.337 3.20721 30.337 3.20721C30.337 3.20721 29.9881 3.13719 29.4305 3.69486C28.8728 4.25253 24.9691 9.27154 25.0391 12.8964C25.1092 16.52 26.7121 20.8425 26.8522 21.5402C26.991 22.2367 27.1998 23.352 27.1998 23.352C27.1998 23.352 26.2933 23.7009 26.2933 23.9797C26.2933 24.2585 26.2933 27.4645 26.6421 27.7433C26.991 28.0222 27.0597 27.8821 27.3398 27.7433C27.6187 27.6045 27.6187 27.6045 27.6187 27.6045V30.044C27.6187 30.044 26.7822 30.5317 26.7121 30.9506C26.6421 31.3694 26.921 34.8542 26.921 35.063C26.921 35.2719 27.4786 34.7142 27.4786 34.7142L27.8962 34.4354C27.8962 34.4354 27.8962 36.3172 27.8962 36.5973C27.8962 36.8761 27.4086 36.9449 27.4786 37.3637C27.5486 37.7814 27.2698 39.1755 37.5166 39.4544C47.7635 39.7332 48.5299 39.5244 49.3664 39.3843C50.203 39.2455 50.5518 38.6179 50.5518 38.0602C50.5518 37.5025 50.6906 36.666 50.6906 36.666C50.6906 36.666 51.0395 36.4572 51.5971 36.4572C52.1548 36.4572 52.1548 36.4572 52.1548 36.4572C52.1548 36.4572 52.0848 37.2937 52.1548 37.7826C52.2248 38.2703 52.6424 38.8279 53.2701 38.4791C53.8978 38.1302 54.2467 37.6426 54.1766 37.3637C54.1066 37.0849 54.1066 37.0849 54.1066 37.0849L53.8978 36.1084C53.8978 36.1084 54.2467 36.1784 54.2467 35.4819C54.2467 34.7855 54.1066 33.4601 54.1766 32.7636C54.2467 32.0671 54.4555 30.9518 54.4555 30.9518L54.0379 30.813C54.0379 30.813 54.0379 30.0465 54.1766 29.5576C54.3167 29.07 54.3167 29.07 54.3167 29.07L54.7343 28.8612C54.7343 28.8612 55.1519 27.2582 55.292 26.1429C55.432 25.0275 55.7096 24.4699 55.7096 24.4699L54.9431 24.121C54.9431 24.121 54.8731 23.3545 55.292 23.0757C55.7096 22.7969 55.9897 22.588 56.1985 22.3092C56.4073 22.0304 56.1985 21.5427 56.1285 21.2639C56.0585 20.9851 55.9884 19.7947 56.4761 17.4252C56.9637 15.0558 57.5914 12.8251 57.5227 9.34031ZM35.0071 8.78264C33.0553 9.06147 32.9853 8.15495 32.9853 7.45724C32.9853 6.76078 33.1941 5.22657 33.6117 4.80895C34.0293 4.39132 34.9359 3.69361 34.9359 3.69361C34.9359 3.69361 35.7724 4.53011 36.33 5.50666C36.8877 6.48195 37.1665 7.94614 37.1665 7.94614C37.1665 7.94614 36.959 8.50381 35.0071 8.78264ZM40.305 6.34316C39.3297 7.10964 38.0055 7.73733 38.0055 7.73733C38.0055 7.73733 37.4466 6.13309 36.959 5.1578C36.4713 4.18126 35.6348 3.27599 35.6348 3.27599C35.6348 3.27599 35.9137 2.92713 36.3325 2.5095C36.7514 2.09188 37.3078 1.32415 37.3078 1.32415C37.3078 1.32415 38.0055 1.74177 39.8873 2.71832C41.7692 3.69361 43.791 3.4848 43.791 3.4848C43.791 3.4848 41.2803 5.57543 40.305 6.34316ZM52.7825 30.9481C52.5737 31.7145 52.7125 31.3657 52.2248 31.5057C51.7359 31.6458 50.8994 31.7145 50.8994 31.7145L50.9694 28.7174C50.9694 28.7174 51.6659 28.6474 52.2236 28.6474C52.7812 28.6474 53.6177 28.7174 53.6177 28.7174C53.6177 28.7174 52.9913 30.1816 52.7825 30.9481ZM55.6396 16.3099C55.1519 18.0529 55.222 19.0282 55.0819 19.9347C54.9419 20.8413 55.2907 21.5377 55.2907 21.5377C55.2907 21.5377 54.8031 22.2342 54.3842 22.513C53.9653 22.7919 54.0354 24.0472 54.0354 24.0472C54.0354 24.0472 53.2689 24.0472 52.7112 24.0472C52.1535 24.0472 50.8982 23.9772 50.8982 23.9772C50.8982 23.9772 51.107 23.0007 50.8281 22.0954C50.5493 21.1889 48.8763 19.6559 48.041 18.5406C47.2045 17.4252 47.4134 15.1258 47.5522 12.1974C47.6922 9.27029 49.2952 5.71422 49.8528 4.53011C50.4105 3.34476 51.9435 2.36946 53.1288 1.88182C53.1288 1.88182 54.1741 1.95184 54.8018 2.78834C55.4295 3.62484 56.6136 7.3197 56.5449 9.41033C56.4761 11.501 56.1272 14.5681 55.6396 16.3099Z" fill="white"/>
<path d="M24.2936 27.8361C24.2936 27.8361 24.1273 25.6804 23.9622 24.6851C23.7959 23.6898 22.9594 23.0396 22.9594 23.0396C22.9594 23.0396 23.2908 13.5868 13.5891 13.5868C9.87172 13.5868 6.70827 15.036 5.03902 16.8228C2.35196 19.6999 2.47825 23.4535 2.47825 23.4535C2.47825 23.4535 1.31665 23.5998 0.405122 23.8999C-0.506402 24.2 0.405122 24.7802 0.405122 24.7802C0.405122 24.7802 1.3254 25.044 2.65205 25.044C3.9787 25.044 4.30254 25.1028 4.30254 25.1028C4.30254 25.1028 4.30254 25.1028 4.30254 25.7617C4.30254 25.8955 3.92243 25.823 3.92243 25.9843C3.92243 26.4257 3.97745 27.4297 3.97745 28.0849C3.97745 28.4163 4.3113 28.2112 4.3263 28.4163C4.3363 28.5575 4.12624 28.5951 4.14375 28.7489C4.17501 29.0252 4.21877 29.319 4.27128 29.6241C4.29754 29.7729 4.44634 29.8667 4.4751 30.0192C4.89397 32.1611 5.54542 34.6481 5.54542 34.6481C5.54542 34.6481 5.17656 34.6881 5.1553 35.2158C5.11029 36.3374 5.57543 37.4465 5.9843 38.2004C6.14185 38.4905 6.33315 38.538 6.92333 39.0294C7.58728 39.5821 9.29404 39.8434 10.2956 39.4071C12.2024 38.5781 12.5925 37.9654 12.5925 37.9654C12.5925 37.9654 15.9923 37.6328 17.4027 37.0538C18.8119 36.4737 20.775 33.8066 21.3552 33.2264C21.5415 33.0401 21.8678 33.3127 22.1054 33.0089C22.6055 32.3649 23.0869 31.796 23.1595 31.1258C23.2757 30.0555 23.2895 29.0927 23.2895 29.0927C23.2895 29.0927 23.2895 29.0927 23.9522 29.0102C24.6174 28.9264 24.2936 27.8361 24.2936 27.8361ZM6.37442 38.0617C7.20717 38.0767 8.63885 38.0354 8.63885 38.0354C7.42348 38.6981 5.92553 38.0529 6.37442 38.0617ZM12.4287 35.2033C12.4012 35.8272 12.1249 36.1011 12.1249 36.1011C12.1249 36.1011 11.1021 36.1411 10.5219 36.1411C9.94174 36.1411 9.36156 36.1411 9.36156 36.1411C9.36156 36.1411 10.912 34.5531 11.3484 34.138C11.7848 33.7241 12.7888 33.8629 12.7888 33.8629C12.395 34.5906 12.4575 34.5406 12.4287 35.2033ZM13.2027 30.3356C13.369 31.4134 13.4791 32.2699 13.4791 32.2699C13.4791 32.2699 11.1859 32.8238 10.4394 33.404C9.69291 33.9842 9.44409 34.7319 8.53257 35.2683C7.62104 35.8047 6.95709 35.2283 6.21062 34.4818C5.73798 34.0079 5.86426 31.666 6.02181 30.018C6.03682 29.8604 6.17686 29.8304 6.19061 29.6879C6.22812 29.3278 6.28314 29.1002 6.24563 28.8576C6.20812 28.6163 6.08058 28.3612 6.08058 28.3612C6.08058 28.3612 8.53257 28.3462 9.77669 28.3462C11.0208 28.3462 14.5856 27.9311 14.5856 27.9311L14.6407 28.7876L13.0377 29.2578C13.0364 29.2578 13.0364 29.2578 13.2027 30.3356ZM17.6528 34.9795C15.6159 35.7522 14.7194 36.046 14.7194 36.046C14.7194 36.046 14.6219 34.7519 15.4134 33.9854C15.5209 33.8816 15.4972 33.5203 15.6385 33.5853C16.0348 33.7679 16.6563 32.1086 16.4149 32.0498C16.1861 31.9961 16.5737 31.7072 16.5737 31.7072C16.5737 31.7072 17.6115 31.7185 18.5231 31.7785C19.6009 31.8498 20.9663 32.3424 20.9663 32.3424C20.9663 32.8388 19.4946 34.2793 17.6528 34.9795ZM17.6253 28.6226L17.6528 27.9311H20.0573L20.7212 28.6776L17.6253 28.6226Z" fill="white"/>
</svg>
