<svg width="32" height="33" viewBox="0 0 32 33" fill="none" xmlns="http://www.w3.org/2000/svg">
<path d="M22.552 17.0169C22.2853 17.0242 22.0352 17.1198 21.8436 17.3123L20.9157 18.2399C20.4779 18.675 20.5341 19.4327 21.0373 19.9351L23.8082 22.7088L21.0373 25.4797C20.5345 25.9825 20.4783 26.7381 20.9157 27.1749L21.8436 28.1034C22.2787 28.5385 23.036 28.4849 23.5389 27.9821L26.3097 25.2085L29.0806 27.9821C29.5857 28.485 30.3408 28.5384 30.7781 28.1034L31.706 27.1749C32.1411 26.7381 32.0872 25.9825 31.5844 25.4797L28.8107 22.7088L31.5844 19.9351C32.0868 19.4327 32.1406 18.6776 31.706 18.2399L30.7781 17.3123C30.3404 16.8768 29.5857 16.9308 29.0806 17.434L26.3097 20.2071L23.5389 17.434C23.2555 17.1503 22.8937 17.0106 22.552 17.0169Z" fill="white"/>
<path d="M7.02948 17.5873L12.8962 17.5875V28.534C12.8495 28.5317 12.8028 28.5267 12.7557 28.5219C9.34888 25.5925 7.19582 22.0655 7.02948 17.5873ZM1.65547 17.5887L5.17187 17.5873C5.31642 21.8362 7.02948 25.3584 10.205 28.2897C6.78521 26.5798 4.77907 25.1612 3.36538 22.7184C2.3667 20.9928 1.80611 19.4665 1.65547 17.5887ZM10.4493 4.83943C7.02948 7.77072 5.31666 11.3737 5.17187 15.6227L1.65547 15.5875C1.74885 13.6606 2.36643 11.9408 3.36538 10.2135C4.98665 7.41006 7.7623 5.81653 10.4493 4.83943ZM12.8964 4.40236V15.6227L7.02948 15.6227C7.1956 11.1444 9.34665 7.34655 12.7537 4.41448C12.8003 4.41185 12.8475 4.40696 12.8964 4.40236ZM13.4765 3.02748C9.21372 3.04589 4.20045 5.61159 1.80611 9.75898C-0.602037 13.9332 -0.602037 19.0801 1.80611 23.2533C4.20308 27.4039 8.74222 29.9686 13.5312 29.9996H13.7656C15.5075 29.9996 17.1371 29.7489 18.75 29.0898C19.4934 28.7954 19.0336 27.4165 18.2969 27.7227C17.6513 27.9866 17.7522 27.9681 17.0469 28.1758C18.7676 26.4105 19.8108 24.7193 20.375 22.4023C20.6417 21.6562 19.1981 21.1602 18.9293 21.9086C17.9847 24.5368 16.8064 26.7707 14.683 28.59C14.648 28.5922 14.6107 28.5972 14.5731 28.5994V17.5873H18.5766C18.9155 17.6035 19.2187 16.993 19.2187 16.6523C19.2187 16.3117 18.9155 15.6035 18.5766 15.6228L14.5731 15.6227V4.33971C14.6319 4.34194 14.688 4.34642 14.7441 4.35089C18.0061 7.14743 19.7412 10.8106 20.0516 15.0989C20.0678 15.934 21.7909 15.9267 21.6859 15.0989C21.3959 11.0773 20.257 7.72941 17.5 4.83943C19.6875 5.62109 20.5188 6.55265 22.1744 8.25926C24.3729 10.2135 25.4527 13.5866 25.35 16.917C25.2938 17.7378 26.9848 17.7426 26.9781 16.917C27.088 13.2698 25.7179 9.73164 23.1759 7.11103C20.6358 4.4918 17.7389 3.01098 13.4765 3.02748Z" fill="white"/>
</svg>
